<?xml version="1.0" encoding="UTF-8" standalone="no"?>
<svg
   width="24"
   height="24"
   version="1.1"
   id="svg4"
   sodipodi:docname="bx-code-curly.svg"
   inkscape:version="1.2 (dc2aedaf03, 2022-05-15)"
   xmlns:inkscape="http://www.inkscape.org/namespaces/inkscape"
   xmlns:sodipodi="http://sodipodi.sourceforge.net/DTD/sodipodi-0.dtd"
   xmlns="http://www.w3.org/2000/svg"
   xmlns:svg="http://www.w3.org/2000/svg">
  <defs
     id="defs8" />
  <sodipodi:namedview
     id="namedview6"
     pagecolor="#ffffff"
     bordercolor="#999999"
     borderopacity="1"
     inkscape:showpageshadow="0"
     inkscape:pageopacity="0"
     inkscape:pagecheckerboard="0"
     inkscape:deskcolor="#d1d1d1"
     showgrid="false"
     inkscape:zoom="9.8333333"
     inkscape:cx="12.050847"
     inkscape:cy="12.050847"
     inkscape:window-width="1371"
     inkscape:window-height="705"
     inkscape:window-x="-9"
     inkscape:window-y="-9"
     inkscape:window-maximized="1"
     inkscape:current-layer="svg4" />
  <path
     d="M9 22h1v-2h-.989C8.703 19.994 6 19.827 6 16c0-1.993-.665-3.246-1.502-4C5.335 11.246 6 9.993 6 8c0-3.827 2.703-3.994 3-4h1V2H8.998C7.269 2.004 4 3.264 4 8c0 2.8-1.678 2.99-2.014 3L2 13c.082 0 2 .034 2 3 0 4.736 3.269 5.996 5 6zm13-11c-.082 0-2-.034-2-3 0-4.736-3.269-5.996-5-6h-1v2h.989c.308.006 3.011.173 3.011 4 0 1.993.665 3.246 1.502 4-.837.754-1.502 2.007-1.502 4 0 3.827-2.703 3.994-3 4h-1v2h1.002C16.731 21.996 20 20.736 20 16c0-2.8 1.678-2.99 2.014-3L22 11z"
     id="path2"
     style="fill:#d4aa00" />
</svg>
